<svg id="Camada_1" data-name="Camada 1" xmlns="http://www.w3.org/2000/svg" viewBox="0 0 166 199"><defs><style>.cls-1{fill:#0600ff;}.cls-2{fill:#fff;}</style></defs><path class="cls-1" d="M83,29.5a65,65,0,0,0-65,65v66.92a8.08,8.08,0,0,0,8.08,8.08H139.92a8.08,8.08,0,0,0,8.08-8.08V94.5A65,65,0,0,0,83,29.5Z"/><path class="cls-2" d="M128.46,92.82a12.7,12.7,0,0,1-6.13,10.92A12.19,12.19,0,0,1,116,105.5a12.68,12.68,0,0,1,0-25.36,12.31,12.31,0,0,1,8.37,3.29A12.76,12.76,0,0,1,128.46,92.82Z"/><path class="cls-2" d="M62.46,92.82a12.7,12.7,0,0,1-6.13,10.92A12.19,12.19,0,0,1,50,105.5a12.68,12.68,0,0,1,0-25.36,12.31,12.31,0,0,1,8.37,3.29A12.76,12.76,0,0,1,62.46,92.82Z"/></svg>