<svg id="Camada_1" data-name="Camada 1" xmlns="http://www.w3.org/2000/svg" viewBox="0 0 166 199"><defs><style>.cls-1{fill:#ff9d00;}.cls-2{fill:#fff;}.cls-3{fill:#0600ff;}</style></defs><path class="cls-1" d="M83,29.5a65,65,0,0,0-65,65v66.92a8.08,8.08,0,0,0,8.08,8.08H139.92a8.08,8.08,0,0,0,8.08-8.08V94.5A65,65,0,0,0,83,29.5Z"/><path class="cls-2" d="M68,94.5c0,9.9-3.55,18.56-8.85,23.25A13.7,13.7,0,0,1,50,121.5c-9.94,0-18-12.09-18-27s8.06-27,18-27c4.65,0,8.9,2.65,12.09,7C65.72,79.44,68,86.57,68,94.5Z"/><path class="cls-3" d="M68,94.5c0,9.9-3.55,18.56-8.85,23.25C54.45,115.24,51,106.68,51,96.5c0-12.15,4.92-22,11-22h.09C65.72,79.44,68,86.57,68,94.5Z"/><path class="cls-2" d="M134,92.5c0,9.9-3.55,18.56-8.85,23.25A13.7,13.7,0,0,1,116,119.5c-9.94,0-18-12.09-18-27s8.06-27,18-27c4.65,0,8.9,2.65,12.09,7C131.72,77.44,134,84.57,134,92.5Z"/><path class="cls-3" d="M134,92.5c0,9.9-3.55,18.56-8.85,23.25-4.7-2.51-8.15-11.07-8.15-21.25,0-12.15,4.92-22,11-22h.09C131.72,77.44,134,84.57,134,92.5Z"/></svg>