<svg id="Camada_1" data-name="Camada 1" xmlns="http://www.w3.org/2000/svg" viewBox="0 0 202 299"><defs><style>.cls-1{fill:#fff;}</style></defs><path class="cls-1" d="M60,45.42a20.25,20.25,0,0,1-.39,4H56.29a18,18,0,0,0-34.58,0H18.39a20.25,20.25,0,0,1-.39-4,21,21,0,0,1,42,0Z"/><path class="cls-1" d="M184,45.42a20.25,20.25,0,0,1-.39,4h-3.32a18,18,0,0,0-34.58,0h-3.32a20.25,20.25,0,0,1-.39-4,21,21,0,0,1,42,0Z"/><path class="cls-1" d="M136,89.42a35,35,0,1,1-70,0Z"/><polygon class="cls-1" points="138.1 224.17 90.82 169.35 99.16 212.94 63.9 219.76 111.18 274.58 102.84 230.99 138.1 224.17"/></svg>