<svg id="Camada_1" data-name="Camada 1" xmlns="http://www.w3.org/2000/svg" viewBox="0 0 202 299"><defs><style>.cls-1{fill:#fff;}</style></defs><path class="cls-1" d="M65.55,102.79A35.65,35.65,0,0,0,67,112.92h27.4c1.86,9.89,8.63,17.22,16.71,17.22s14.85-7.33,16.71-17.22H135a35.33,35.33,0,0,0,1.4-7.89c.05-.74.07-1.49.07-2.24Z"/><polygon class="cls-1" points="45.36 43.04 56.82 54.49 49.66 61.65 38.2 50.2 26.75 61.65 19.59 54.49 31.04 43.04 19.59 31.58 26.75 24.42 38.2 35.88 49.66 24.42 56.82 31.58 45.36 43.04"/><polygon class="cls-1" points="170.96 43.04 182.41 54.49 175.25 61.65 163.8 50.2 152.34 61.65 145.18 54.49 156.64 43.04 145.18 31.58 152.34 24.42 163.8 35.88 175.25 24.42 182.41 31.58 170.96 43.04"/><polygon class="cls-1" points="138.1 224.17 90.82 169.35 99.16 212.94 63.9 219.76 111.18 274.58 102.84 230.99 138.1 224.17"/></svg>