<svg id="Camada_1" data-name="Camada 1" xmlns="http://www.w3.org/2000/svg" viewBox="0 0 202 299"><defs><style>.cls-1{fill:#fff;}</style></defs><path class="cls-1" d="M184,45.42A21,21,0,1,0,158.87,66,25,25,0,0,0,154,79.29a9,9,0,1,0,18,0A25,25,0,0,0,167.13,66,21,21,0,0,0,184,45.42Z"/><path class="cls-1" d="M60,45.42A21,21,0,1,0,34.87,66,25,25,0,0,0,30,79.29a9,9,0,0,0,18,0A25,25,0,0,0,43.13,66,21,21,0,0,0,60,45.42Z"/><path class="cls-1" d="M125,118.12a23.48,23.48,0,0,1-.86,6.3,25.22,25.22,0,0,0-48.28,0,23.48,23.48,0,0,1-.86-6.3c0-13.36,11.19-24.18,25-24.18S125,104.76,125,118.12Z"/><polygon class="cls-1" points="138.1 224.17 90.82 169.35 99.16 212.94 63.9 219.76 111.18 274.58 102.84 230.99 138.1 224.17"/></svg>